<svg viewBox="1403.12 969.301 2983.279 2983.279" fill="none" xmlns="http://www.w3.org/2000/svg">
<path d="M3298.39 2335.69V3147.24L2827.12 2820.47L2827.12 2087.99L3298.39 2335.69ZM2430.11 1879.32V2544.42L2662.34 2705.97H1958.83V1631.61L2430.11 1879.32ZM3199.54 1031.48H3298.39V2284.36L2827.12 2036.66L2827.12 1483.87H2443.43L2695.86 1029.88H3199.54V1031.48ZM2430.11 1213.22V1827.99L1958.83 1580.28V969.301L2430.11 1213.22Z" fill="url(#paint0_linear_32_350)"/>
<path d="M3468.65 3777.56L3519.92 3778.55L3538.66 3832.29C3542.27 3842.15 3545.56 3848.55 3548.52 3851.51C3551.48 3854.47 3554.27 3856.77 3556.9 3858.41C3567.74 3863.34 3578.43 3867.29 3588.94 3870.25C3599.46 3873.21 3610.14 3875.67 3620.99 3877.64C3631.84 3879.29 3643.01 3880.44 3654.51 3881.09C3666.02 3881.42 3678.02 3881.59 3690.5 3881.59C3698.06 3881.59 3704.97 3880.11 3711.21 3877.15C3717.46 3873.86 3722.71 3869.59 3726.99 3864.33C3731.26 3858.74 3734.55 3852.66 3736.85 3846.09C3739.15 3839.19 3740.3 3831.96 3740.3 3824.4C3740.3 3807.31 3736.19 3793.17 3727.97 3782C3720.09 3770.82 3709.57 3761.46 3696.42 3753.9C3683.27 3746.34 3668.15 3739.93 3651.06 3734.67C3634.3 3729.41 3617.21 3724.32 3599.79 3719.39C3582.37 3714.46 3565.12 3708.87 3548.02 3702.62C3531.26 3696.38 3516.31 3688.65 3503.16 3679.45C3490.01 3669.92 3479.33 3658.25 3471.11 3644.45C3463.23 3630.31 3459.28 3612.73 3459.28 3591.69C3459.28 3566.06 3463.39 3543.05 3471.61 3522.67C3480.15 3501.97 3492.48 3484.38 3508.58 3469.92C3525.02 3455.46 3545.07 3444.45 3568.73 3436.89C3592.72 3429 3620.17 3425.06 3651.06 3425.06C3678.34 3425.06 3704.64 3426.37 3729.95 3429C3755.25 3431.3 3781.38 3434.26 3808.33 3437.87L3795.52 3570.5H3747.2L3732.41 3533.52C3728.8 3523.99 3725.18 3516.59 3721.56 3511.33C3717.95 3505.75 3712.69 3501.47 3705.79 3498.52C3691.98 3492.6 3675.71 3487.83 3656.98 3484.22C3638.57 3480.27 3620.17 3478.3 3601.76 3478.3C3593.87 3478.3 3586.64 3480.44 3580.07 3484.71C3573.5 3488.98 3567.91 3494.57 3563.31 3501.47C3559.03 3508.05 3555.58 3515.44 3552.95 3523.66C3550.65 3531.55 3549.5 3539.44 3549.5 3547.32C3549.5 3563.43 3553.45 3576.74 3561.34 3587.26C3569.55 3597.78 3580.23 3606.65 3593.38 3613.88C3606.53 3620.78 3621.48 3626.7 3638.25 3631.63C3655.01 3636.23 3672.1 3641 3689.52 3645.93C3706.94 3650.86 3724.03 3656.44 3740.79 3662.69C3757.55 3668.6 3772.51 3676.49 3785.66 3686.35C3798.8 3695.88 3809.32 3707.88 3817.21 3722.34C3825.43 3736.48 3829.53 3754.22 3829.53 3775.59C3829.53 3806.48 3824.11 3832.78 3813.26 3854.47C3802.75 3875.83 3788.29 3893.42 3769.88 3907.22C3751.47 3920.7 3729.78 3930.56 3704.8 3936.8C3680.15 3943.05 3653.86 3946.17 3625.92 3946.17C3613.43 3946.17 3599.46 3945.02 3584.01 3942.72C3568.57 3940.42 3552.95 3937.46 3537.18 3933.85C3521.4 3929.9 3506.12 3925.46 3491.33 3920.53C3476.54 3915.28 3463.39 3909.85 3451.89 3904.26L3468.65 3777.56Z" fill="#30244D"/>
<path d="M2904.58 3545.85C2904.25 3529.41 2901.46 3516.59 2896.2 3507.39C2891.27 3498.19 2885.19 3491.45 2877.96 3487.18C2871.05 3482.58 2863.49 3479.62 2855.28 3478.3C2847.39 3476.66 2840.32 3475.18 2834.08 3473.87V3436.4L3015.01 3424.07C3014.03 3433.27 3013.21 3442.15 3012.55 3450.69C3011.89 3459.24 3011.23 3468.61 3010.58 3478.8C3009.92 3488.66 3009.43 3499.5 3009.1 3511.33C3009.1 3523.17 3008.93 3536.97 3008.6 3552.75C3008.28 3568.2 3008.11 3585.94 3008.11 3605.99C3008.11 3626.04 3008.11 3649.05 3008.11 3675.01V3805.66C3008.11 3819.47 3009.43 3830.48 3012.06 3838.69C3015.01 3846.58 3019.62 3852.66 3025.86 3856.94C3032.43 3860.88 3040.98 3863.35 3051.5 3864.33C3062.34 3865.32 3075.65 3865.81 3091.43 3865.81C3104.58 3865.81 3117.89 3864.66 3131.36 3862.36C3144.84 3860.06 3157.82 3857.1 3170.31 3853.49C3182.8 3849.54 3194.31 3845.27 3204.82 3840.67C3215.34 3836.07 3224.38 3831.46 3231.94 3826.86V3551.76C3231.94 3538.29 3229.64 3526.95 3225.04 3517.74C3220.44 3508.21 3214.03 3500.49 3205.81 3494.57C3197.59 3488.66 3187.73 3484.05 3176.23 3480.77C3165.05 3477.48 3152.73 3475.18 3139.25 3473.87V3436.4L3338.43 3424.07C3337.77 3441.49 3337.12 3460.72 3336.46 3481.75C3336.13 3502.79 3335.8 3524.48 3335.47 3546.83C3335.47 3568.85 3335.47 3590.87 3335.47 3612.89C3335.47 3634.92 3335.47 3655.62 3335.47 3675.01V3807.14C3335.47 3824.56 3337.28 3837.71 3340.9 3846.58C3344.84 3855.46 3350.1 3861.87 3356.67 3865.81C3363.25 3869.75 3370.97 3872.22 3379.84 3873.21C3388.72 3874.19 3398.41 3875.34 3408.93 3876.66V3912.15C3391.51 3915.77 3376.89 3918.89 3365.05 3921.52C3353.22 3923.82 3342.21 3926.45 3332.02 3929.41C3321.83 3932.04 3311.64 3935.33 3301.45 3939.27C3291.59 3943.21 3279.76 3948.31 3265.96 3954.55L3246.24 3944.2L3233.91 3874.19C3223.39 3881.42 3212.22 3888.65 3200.39 3895.88C3190.2 3902.13 3178.69 3908.7 3165.88 3915.6C3153.39 3922.18 3140.57 3927.77 3127.42 3932.37C3124.46 3933.35 3120.03 3935 3114.11 3937.3C3108.19 3939.6 3101.46 3941.9 3093.9 3944.2C3086.34 3946.5 3077.96 3948.47 3068.75 3950.12C3059.88 3951.76 3050.84 3952.58 3041.64 3952.58C3017.64 3952.58 2997.43 3949.95 2981 3944.69C2964.89 3939.76 2951.74 3932.7 2941.55 3923.49C2931.37 3914.29 2923.64 3903.44 2918.38 3890.95C2913.45 3878.46 2909.84 3864.99 2907.54 3850.53C2905.56 3835.74 2904.58 3820.29 2904.58 3804.18C2904.58 3788.08 2904.58 3771.81 2904.58 3755.38V3545.85Z" fill="#30244D"/>
<path d="M2553.45 3501.47H2475.56V3451.68L2523.87 3433.44C2533.41 3429.82 2541.46 3424.89 2548.03 3418.65C2554.93 3412.07 2559.37 3406.32 2561.34 3401.39L2599.3 3306.73H2660.44L2656.99 3434.92H2814.26V3501.47H2656.99V3819.47C2656.99 3835.24 2661.26 3846.58 2669.81 3853.48C2678.68 3860.06 2691.01 3863.34 2706.78 3863.34C2715.66 3863.34 2725.52 3862.36 2736.36 3860.39C2747.21 3858.41 2758.05 3855.95 2768.9 3852.99C2779.75 3849.7 2790.27 3846.25 2800.45 3842.64C2810.64 3838.69 2819.52 3834.91 2827.08 3831.3L2845.81 3878.63C2833.98 3886.19 2820.17 3894.24 2804.4 3902.79C2788.95 3911.33 2772.85 3919.22 2756.08 3926.45C2739.32 3933.68 2722.39 3939.6 2705.3 3944.2C2688.54 3948.8 2672.76 3951.1 2657.97 3951.1C2632.99 3951.1 2613.44 3947.81 2599.3 3941.24C2585.5 3935 2575.15 3925.46 2568.24 3912.65C2561.34 3899.5 2557.07 3883.07 2555.43 3863.34C2554.11 3843.62 2553.45 3820.45 2553.45 3793.83V3501.47Z" fill="#30244D"/>
<path d="M2012.11 3812.57C2012.11 3798.76 2013.26 3786.11 2015.56 3774.6C2018.19 3763.1 2023.12 3752.42 2030.35 3742.56C2037.91 3732.37 2048.43 3722.84 2061.91 3713.96C2075.71 3704.76 2093.62 3695.72 2115.65 3686.85C2138 3677.97 2165.11 3668.93 2196.99 3659.73C2228.87 3650.53 2267 3640.67 2311.37 3630.15V3554.72C2311.37 3545.52 2310.71 3536.81 2309.4 3528.59C2308.41 3520.04 2304.96 3512.65 2299.05 3506.4C2293.13 3499.83 2283.93 3494.57 2271.44 3490.63C2259.28 3486.35 2242.19 3484.05 2220.16 3483.73C2204.39 3483.73 2191.24 3486.03 2180.72 3490.63C2170.21 3494.9 2161.17 3501.64 2153.61 3510.84C2146.38 3520.04 2139.97 3531.55 2134.38 3545.35C2129.12 3558.83 2123.7 3574.6 2118.11 3592.68H2039.23L2049.58 3491.12C2060.43 3486.52 2072.26 3481.59 2085.08 3476.33C2097.9 3471.07 2110.88 3465.98 2124.03 3461.05C2137.5 3456.12 2150.81 3451.52 2163.96 3447.24C2177.11 3442.64 2189.27 3438.7 2200.44 3435.41C2211.95 3431.79 2222.14 3429 2231.01 3427.03C2239.89 3425.06 2246.79 3424.07 2251.72 3424.07C2281.3 3424.07 2306.28 3426.37 2326.66 3430.97C2347.36 3435.57 2364.29 3443.46 2377.44 3454.64C2390.58 3465.48 2400.11 3480.11 2406.03 3498.52C2411.95 3516.59 2414.9 3539.11 2414.9 3566.06V3849.54C2414.9 3858.42 2418.85 3864.82 2426.74 3868.77C2434.63 3872.71 2443.17 3875.34 2452.37 3876.66C2461.91 3877.97 2470.62 3878.63 2478.5 3878.63C2486.39 3878.63 2490.34 3878.96 2490.34 3879.61V3920.53C2483.76 3923.16 2476.04 3926.12 2467.16 3929.41C2458.62 3932.37 2449.42 3935.16 2439.56 3937.79C2429.69 3940.42 2419.67 3942.72 2409.48 3944.69C2399.62 3946.66 2390.09 3947.65 2380.89 3947.65C2357.55 3947.65 2340.95 3941.57 2331.09 3929.41C2321.23 3917.25 2316.3 3898.68 2316.3 3873.7C2300.53 3886.85 2286.56 3898.18 2274.4 3907.72C2262.56 3916.92 2250.9 3924.48 2239.39 3930.4C2228.22 3936.31 2216.22 3940.58 2203.4 3943.21C2190.58 3946.17 2175.63 3947.65 2158.54 3947.65C2141.45 3947.65 2124.19 3945.02 2106.77 3939.76C2089.35 3934.5 2073.58 3926.45 2059.44 3915.6C2045.64 3904.43 2034.3 3890.3 2025.42 3873.21C2016.55 3856.11 2012.11 3835.9 2012.11 3812.57ZM2120.58 3800.24C2120.58 3813.39 2122.88 3824.73 2127.48 3834.26C2132.41 3843.46 2138.98 3851.18 2147.2 3857.43C2155.42 3863.35 2165.11 3867.78 2176.29 3870.74C2187.79 3873.37 2199.95 3874.68 2212.77 3874.68C2230.52 3874.68 2247.94 3870.08 2265.03 3860.88C2282.12 3851.35 2297.57 3840.01 2311.37 3826.86V3680.44C2299.54 3684.71 2286.56 3688.65 2272.42 3692.27C2258.29 3695.56 2244.16 3699.17 2230.02 3703.12C2215.89 3706.73 2202.25 3711 2189.1 3715.93C2175.96 3720.86 2164.29 3727.11 2154.1 3734.67C2143.91 3741.9 2135.7 3750.94 2129.45 3761.78C2123.53 3772.3 2120.58 3785.12 2120.58 3800.24Z" fill="#30244D"/>
<path d="M1403.12 3897.36C1421.2 3891.78 1435.5 3887.01 1446.01 3883.07C1456.86 3878.79 1464.91 3873.37 1470.17 3866.8C1475.76 3859.89 1479.21 3850.86 1480.53 3839.68C1482.17 3828.51 1482.99 3813.22 1482.99 3793.83V3596.13C1482.99 3578.71 1480.53 3564.74 1475.6 3554.23C1470.99 3543.38 1464.75 3535 1456.86 3529.08C1449.3 3522.84 1440.59 3518.07 1430.73 3514.79C1420.87 3511.5 1410.68 3508.54 1400.16 3505.91V3470.41C1415.28 3467.46 1428.27 3464.99 1439.11 3463.02C1450.29 3460.72 1460.31 3458.58 1469.19 3456.61C1478.06 3454.31 1486.28 3452.01 1493.84 3449.71C1501.4 3447.08 1509.12 3444.28 1517.01 3441.33C1524.9 3438.04 1533.44 3434.26 1542.64 3429.99C1551.85 3425.71 1562.53 3420.46 1574.69 3414.21L1594.41 3424.56L1588 3503.45C1599.18 3497.2 1610.84 3490.63 1623.01 3483.73C1633.52 3477.81 1645.03 3471.24 1657.52 3464.01C1670.34 3456.77 1683.15 3449.54 1695.97 3442.31C1699.26 3441.33 1704.02 3439.85 1710.27 3437.88C1716.51 3435.9 1723.58 3433.93 1731.47 3431.96C1739.69 3429.99 1748.4 3428.18 1757.6 3426.54C1767.13 3424.89 1776.5 3424.07 1785.7 3424.07C1810.68 3424.07 1831.39 3426.54 1847.82 3431.47C1864.58 3436.4 1878.06 3443.3 1888.25 3452.17C1898.44 3460.72 1906 3471.07 1910.93 3483.23C1916.18 3495.39 1919.64 3508.54 1921.28 3522.67C1923.25 3536.81 1924.24 3551.93 1924.24 3568.03C1924.24 3583.81 1924.24 3599.91 1924.24 3616.35L1924.73 3870.25C1937.22 3874.85 1948.89 3878.96 1959.73 3882.57C1969.27 3885.86 1978.63 3888.98 1987.84 3891.94C1997.04 3894.57 2004.1 3896.38 2009.03 3897.36V3937.79H1742.31V3897.36C1755.79 3893.42 1767.13 3890.3 1776.33 3888C1785.54 3885.37 1792.93 3882.74 1798.52 3880.11C1804.43 3877.15 1808.87 3873.86 1811.83 3870.25C1815.12 3866.3 1817.25 3861.21 1818.24 3854.96C1819.55 3848.39 1820.21 3840.17 1820.21 3830.31C1820.54 3820.45 1820.7 3807.96 1820.7 3792.84V3560.64C1820.7 3554.06 1819.72 3547.65 1817.75 3541.41C1816.1 3535.16 1813.97 3530.56 1811.34 3527.6C1807.39 3523.99 1803.12 3520.87 1798.52 3518.24C1794.25 3515.61 1788.82 3513.47 1782.25 3511.83C1775.68 3510.18 1767.79 3509.03 1758.58 3508.38C1749.38 3507.39 1738.37 3506.9 1725.55 3506.9C1711.75 3506.9 1698.11 3508.38 1684.63 3511.33C1671.16 3513.96 1658.34 3517.41 1646.18 3521.69C1634.02 3525.63 1622.84 3530.23 1612.65 3535.49C1602.46 3540.42 1593.75 3545.19 1586.52 3549.79V3870.25L1671.81 3897.36V3937.79H1403.12V3897.36Z" fill="#30244D"/>
<defs>
<linearGradient id="paint0_linear_32_350" x1="3300.7" y1="1029.88" x2="2707.44" y2="3178.01" gradientUnits="userSpaceOnUse">
<stop stop-color="#346FA7"/>
<stop offset="1" stop-color="#59159C"/>
</linearGradient>
</defs>
</svg>
